<svg xmlns="http://www.w3.org/2000/svg" viewBox="0 0 128 128">
  <g opacity=".1">
    <path fill="#fff" d="M18 45 24 5l27 24c9-3 17-3 26 0l27-24 6 40c9 13 13 27 12 43-1 24-21 36-58 36S7 112 6 88c-1-16 3-30 12-43Z"/>
    <path fill="#bfc0c3" d="m24 47 5-29 18 18c11-5 23-6 34 0l18-18 5 29c7 11 10 23 9 37-2 20-18 29-49 29S17 104 15 84c-1-14 2-26 9-37Z"/>
    <path fill="#fff" d="m29 39 3-15 12 13-8 8-7-6Zm70 0-3-15-12 13 8 8 7-6Z"/>
    <path fill="#4e5055" stroke="#fff" stroke-width="3" d="M17 70c13-7 29-10 47-10s34 3 47 10l-5 24c-11 7-25 10-42 10s-31-3-42-10l-5-24Z"/>
    <path fill="#929499" d="M23 73c12-5 26-7 41-7s29 2 41 7l-2 9c-12-4-25-6-39-6s-27 2-39 6l-2-9Z"/>
    <path fill="#303136" d="M27 84c11-3 24-5 37-5s26 2 37 5l-2 7c-10 5-22 7-35 7s-25-2-35-7l-2-7Z"/>
    <path fill="#fff" d="M80 40h16l-5 8h-8l-3 5 11 4-8 13H66l5-8h8l3-5-12-4 10-13Z"/>
    <path fill="#d6d7d9" d="M53 108h22l-3 8H56l-3-8Z"/>
  </g>
</svg>
