<svg xmlns="http://www.w3.org/2000/svg" viewBox="0 0 64 64">
  <rect width="64" height="64" rx="12" fill="#303136"/>
  <path fill="#171719" d="M9 22 13 3l13 12c4-1 8-1 12 0L51 3l4 19c5 7 7 14 6 23-1 12-11 18-29 18S4 57 3 45c-1-9 1-16 6-23Z"/>
  <path fill="#e2dc78" d="m13 23 3-14 9 9c5-2 9-2 14 0l9-9 3 14c4 5 5 12 5 18-1 10-9 15-24 15S9 51 8 41c0-6 1-13 5-18Z"/>
  <path fill="#090a0c" stroke="#777b80" stroke-width="2" d="M9 35c7-3 14-5 23-5s16 2 23 5l-3 12c-6 4-13 5-20 5s-14-1-20-5L9 35Z"/>
  <path fill="#4f657b" d="M40 18h9l-3 5h-4l-2 3 6 2-5 7h-9l3-5h4l2-2-7-3 6-7Z"/>
</svg>
